<svg id="SvgjsSvg1019" width="288" height="288" xmlns="http://www.w3.org/2000/svg" version="1.1" xmlns:xlink="http://www.w3.org/1999/xlink" xmlns:svgjs="http://svgjs.com/svgjs"><rect id="SvgjsRect1027" width="288" height="288" rx="32" ry="32" transform="matrix(0.9999999999999999,0,0,0.9999999999999999,2.842170943040401e-14,2.842170943040401e-14)" fill="#000000"></rect><defs id="SvgjsDefs1020"></defs><g id="SvgjsG1021" transform="matrix(0.75,0,0,0.75,33.794999957084656,35.99391841888428)"><svg xmlns="http://www.w3.org/2000/svg" viewBox="0 0 16 16" width="288" height="288"><path fill="#2196f3" d="M8.32 7.68.58 15.42c-.37-.35-.57-.83-.57-1.35V1.93C.01 1.4.22.92.6.56l7.72 7.12z" class="color2196F3 svgShape"></path><path fill="#ffc107" d="M15.01 8c0 .7-.38 1.32-1.01 1.67l-2.2 1.22-2.73-2.52-.75-.69 2.89-2.89L14 6.33c.63.35 1.01.97 1.01 1.67z" class="colorFFC107 svgShape"></path><path fill="#4caf50" d="M8.32 7.68.6.56C.7.46.83.37.96.29 1.59-.09 2.35-.1 3 .26l8.21 4.53-2.89 2.89z" class="color4CAF50 svgShape"></path><path fill="#f44336" d="M11.8 10.89 3 15.74c-.31.18-.66.26-1 .26-.36 0-.72-.09-1.04-.29a1.82 1.82 0 0 1-.38-.29l7.74-7.74.75.69 2.73 2.52z" class="colorF44336 svgShape"></path></svg></g></svg>